# xmcd
#
# Track frame offsets:
#	150
#	17475
#	38057
#	56665
#	76840
#	99720
#	119697
#	138402
#	158482
#	179542
#	197670
#	215350
#
# Disc length: 3121 seconds
#
# Revision: 1
# Processed by: cddbd v1.5PL3 Copyright (c) Steve Scherf et al.
# Submitted via: CDex 1.50Beta5
#
DISCID=9d0c2f0c
DTITLE=井川雅幸 - 岡村孝子作品集
DYEAR=1989
DGENRE=Pop
TTITLE0=Today
TTITLE1=ソレイユ
TTITLE2=見送るわ
TTITLE3=未知標
TTITLE4=Believe
TTITLE5=クリスマスの夜
TTITLE6=リベルテ
TTITLE7=Baby,Baby
TTITLE8=電車
TTITLE9=夏の日の午後
TTITLE10=風は海から
TTITLE11=夢をあきらめないで
EXTD=
EXTT0=
EXTT1=
EXTT2=
EXTT3=
EXTT4=
EXTT5=
EXTT6=
EXTT7=
EXTT8=
EXTT9=
EXTT10=
EXTT11=
PLAYORDER=
